<?xml version="1.0" encoding="UTF-8" standalone="no"?>
<!DOCTYPE svg PUBLIC "-//W3C//DTD SVG 1.1//EN" "http://www.w3.org/Graphics/SVG/1.1/DTD/svg11.dtd">
<!-- Created with Vectornator (http://vectornator.io/) -->
<svg height="100%" stroke-miterlimit="10" style="fill-rule:nonzero;clip-rule:evenodd;stroke-linecap:round;stroke-linejoin:round;" version="1.1" viewBox="0 0 1024 1024" width="100%" xml:space="preserve" xmlns="http://www.w3.org/2000/svg" xmlns:vectornator="http://vectornator.io" xmlns:xlink="http://www.w3.org/1999/xlink">
<defs/>
<g id="logo" vectornator:layerName="logo">
<g opacity="1">
<path d="M947.97 500.533C947.97 702.416 747.414 866.083 500 866.083C252.585 866.083 52.0307 702.416 52.0307 500.533C52.0307 298.671 252.585 135 500 135C747.414 135 947.97 298.671 947.97 500.533" fill="#ffffff" fill-rule="nonzero" opacity="1" stroke="none" vectornator:layerName="path"/>
<path d="M950 500.541C950 701.753 748.529 864.85 500.01 864.85C251.482 864.85 50 701.753 50 500.541C50 299.339 251.482 136.232 500.01 136.232C748.529 136.232 950 299.339 950 500.541Z" fill="none" opacity="1" stroke="#213e87" stroke-linecap="butt" stroke-linejoin="miter" stroke-width="2" vectornator:layerName="path"/>
<path d="M829.771 500.56C829.771 638.842 682.078 750.907 499.932 750.907C317.75 750.907 170.077 638.842 170.077 500.56C170.077 362.257 317.75 250.177 499.932 250.177C682.078 250.177 829.771 362.257 829.771 500.56" fill="#213e87" fill-rule="nonzero" opacity="1" stroke="none" vectornator:layerName="path"/>
<path d="M902.882 472.885C902.882 481.322 895.773 488.122 886.971 488.122C878.193 488.122 871.056 481.322 871.056 472.885C871.056 464.492 878.193 457.676 886.971 457.676C895.773 457.676 902.882 464.492 902.882 472.885" fill="#213e87" fill-rule="nonzero" opacity="1" stroke="none" vectornator:layerName="path"/>
<path d="M133.06 472.885C133.06 481.322 125.952 488.122 117.144 488.122C108.375 488.122 101.231 481.322 101.231 472.885C101.231 464.492 108.375 457.676 117.144 457.676C125.952 457.676 133.06 464.492 133.06 472.885" fill="#213e87" fill-rule="nonzero" opacity="1" stroke="none" vectornator:layerName="path"/>
<path d="M440.614 704.422L440.614 701.487C443.676 701.21 445.846 700.744 447.057 700.128C448.292 699.503 449.2 698.025 449.802 695.653L453.209 695.653L453.209 725.918L448.614 725.918L448.614 704.422L440.614 704.422Z" fill="#ffffff" fill-rule="nonzero" opacity="1" stroke="none" vectornator:layerName="path"/>
<path d="M472.032 718.507C472.032 720.813 472.882 722.769 474.621 724.356C476.359 725.898 478.884 726.699 482.227 726.699C487.2 726.699 490.726 724.317 492.793 719.559C494.06 716.693 494.67 713.444 494.67 709.721C494.67 706.448 494.151 703.7 493.081 701.548C491.22 697.58 487.78 695.592 482.807 695.592C479.146 695.592 476.359 696.629 474.465 698.699C472.569 700.764 471.622 703.174 471.622 705.944C471.622 708.774 472.569 711.118 474.495 712.89C476.406 714.724 479.006 715.634 482.298 715.634C483.917 715.634 485.431 715.361 486.841 714.831C488.274 714.283 489.461 713.356 490.397 712.005C489.777 716.673 488.774 719.714 487.297 721.256C485.851 722.769 484.093 723.536 482.038 723.536C480.947 723.536 479.947 723.323 479.066 722.879C477.361 722.076 476.457 720.618 476.322 718.507L472.032 718.507ZM482.865 712.295C480.503 712.295 478.772 711.748 477.707 710.588C476.625 709.429 476.071 707.863 476.071 705.898C476.071 703.831 476.681 702.143 477.941 700.91C479.159 699.693 480.814 699.096 482.933 699.096C484.881 699.096 486.502 699.605 487.758 700.679C489.034 701.797 489.667 703.429 489.667 705.645C489.667 708.136 488.961 709.824 487.543 710.818C486.124 711.793 484.563 712.295 482.865 712.295" fill="#ffffff" fill-rule="nonzero" opacity="1" stroke="none" vectornator:layerName="path"/>
<path d="M518.208 695.445C512.906 695.445 509.196 697.955 507.199 702.982C506.151 705.625 505.659 708.812 505.659 712.593C505.659 717.66 506.813 721.317 509.144 723.449C511.468 725.603 514.244 726.7 517.474 726.7C521.214 726.7 524.109 725.644 526.155 723.516C528.201 721.401 529.178 718.953 529.178 716.181C529.178 712.999 528.109 710.568 525.966 708.936C523.84 707.313 521.328 706.512 518.433 706.512C516.761 706.512 515.225 706.765 513.851 707.334C512.348 708.011 511.098 708.936 510.111 710.227C510.278 706.555 511.062 703.725 512.483 701.739C513.913 699.75 515.842 698.758 518.275 698.758C520.422 698.758 521.978 699.413 523.013 700.661C523.576 701.363 523.982 702.269 524.25 703.465L528.553 703.465C528.553 701.612 527.774 699.795 526.269 698.063C524.755 696.304 522.067 695.445 518.208 695.445M517.873 723.218C515.621 723.218 513.838 722.58 512.563 721.279C511.296 719.986 510.658 718.382 510.658 716.482C510.658 714.33 511.356 712.698 512.748 711.62C514.16 710.525 515.788 709.978 517.65 709.978C520.325 709.978 522.155 710.673 523.162 712.088C524.162 713.463 524.658 714.959 524.658 716.482C524.658 718.298 524.109 719.879 522.981 721.21C521.843 722.56 520.145 723.218 517.873 723.218" fill="#ffffff" fill-rule="nonzero" opacity="1" stroke="none" vectornator:layerName="path"/>
<path d="M539.928 718.507C539.928 720.813 540.767 722.769 542.511 724.356C544.257 725.898 546.775 726.699 550.123 726.699C555.081 726.699 558.594 724.317 560.696 719.559C561.945 716.693 562.553 713.444 562.553 709.721C562.553 706.448 562.055 703.7 561.001 701.548C559.115 697.58 555.688 695.592 550.707 695.592C547.029 695.592 544.235 696.629 542.348 698.699C540.447 700.764 539.518 703.174 539.518 705.944C539.518 708.774 540.477 711.118 542.365 712.89C544.306 714.724 546.893 715.634 550.198 715.634C551.817 715.634 553.335 715.361 554.735 714.831C556.141 714.283 557.353 713.356 558.293 712.005C557.681 716.673 556.64 719.714 555.188 721.256C553.752 722.769 551.993 723.536 549.938 723.536C548.815 723.536 547.817 723.323 546.956 722.879C545.261 722.076 544.31 720.618 544.214 718.507L539.928 718.507ZM550.769 712.295C548.403 712.295 546.672 711.748 545.581 710.588C544.512 709.429 543.958 707.863 543.958 705.898C543.958 703.831 544.579 702.143 545.82 700.91C547.044 699.693 548.736 699.096 550.81 699.096C552.768 699.096 554.368 699.605 555.663 700.679C556.904 701.797 557.567 703.429 557.567 705.645C557.567 708.136 556.85 709.824 555.441 710.818C554.039 711.793 552.468 712.295 550.769 712.295" fill="#ffffff" fill-rule="nonzero" opacity="1" stroke="none" vectornator:layerName="path"/>
<path d="M103.22 506.943C103.22 506.943 92.0097 549.224 115.715 570.978C115.715 570.978 125.464 538.271 103.22 506.943" fill="#213e87" fill-rule="nonzero" opacity="1" stroke="none" vectornator:layerName="path"/>
<path d="M77.9171 555.934C77.9171 555.934 94.8975 596.448 127.454 600.712C127.454 600.712 115.195 568.742 77.9171 555.934" fill="#213e87" fill-rule="nonzero" opacity="1" stroke="none" vectornator:layerName="path"/>
<path d="M140.038 542.364C140.038 542.364 149.376 580.622 127.663 599.809C127.663 599.809 119.452 570.197 140.038 542.364" fill="#213e87" fill-rule="nonzero" opacity="1" stroke="none" vectornator:layerName="path"/>
<path d="M90.3915 595.666C90.3915 595.666 112.714 633.708 145.563 633.9C145.563 633.9 129.087 603.739 90.3915 595.666" fill="#213e87" fill-rule="nonzero" opacity="1" stroke="none" vectornator:layerName="path"/>
<path d="M150.2 574.497C150.2 574.497 164.597 611.295 145.637 633.01C145.637 633.01 133.503 604.645 150.2 574.497" fill="#213e87" fill-rule="nonzero" opacity="1" stroke="none" vectornator:layerName="path"/>
<path d="M108.813 635.251C108.813 635.251 136.1 670.243 168.695 666.358C168.695 666.358 148.288 638.455 108.813 635.251" fill="#213e87" fill-rule="nonzero" opacity="1" stroke="none" vectornator:layerName="path"/>
<path d="M165.253 606.884C165.253 606.884 184.491 641.562 168.638 665.448C168.638 665.448 152.784 638.818 165.253 606.884" fill="#213e87" fill-rule="nonzero" opacity="1" stroke="none" vectornator:layerName="path"/>
<path d="M132.638 671.744C132.638 671.744 165.085 702.411 196.712 693.903C196.712 693.903 172.147 669.253 132.638 671.744" fill="#213e87" fill-rule="nonzero" opacity="1" stroke="none" vectornator:layerName="path"/>
<path d="M183.983 635.608C183.983 635.608 208.442 667.14 196.514 692.986C196.514 692.986 176.657 668.971 183.983 635.608" fill="#213e87" fill-rule="nonzero" opacity="1" stroke="none" vectornator:layerName="path"/>
<path d="M161.108 704.844C161.108 704.844 197.046 731.665 227.445 719.685C227.445 719.685 200.033 697.975 161.108 704.844" fill="#213e87" fill-rule="nonzero" opacity="1" stroke="none" vectornator:layerName="path"/>
<path d="M207.691 663.233C207.691 663.233 235.852 691.827 227.128 718.842C227.128 718.842 204.489 697.155 207.691 663.233" fill="#213e87" fill-rule="nonzero" opacity="1" stroke="none" vectornator:layerName="path"/>
<path d="M193.948 734.368C193.948 734.368 232.611 757.533 261.528 742.607C261.528 742.607 231.958 723.698 193.948 734.368" fill="#213e87" fill-rule="nonzero" opacity="1" stroke="none" vectornator:layerName="path"/>
<path d="M235.802 688.347C235.802 688.347 266.877 714.011 261.159 741.777C261.159 741.777 236.279 722.454 235.802 688.347" fill="#213e87" fill-rule="nonzero" opacity="1" stroke="none" vectornator:layerName="path"/>
<path d="M227.593 759.311C227.593 759.311 268.686 778.239 295.694 760.369C295.694 760.369 264.104 744.671 227.593 759.311" fill="#213e87" fill-rule="nonzero" opacity="1" stroke="none" vectornator:layerName="path"/>
<path d="M264.387 780.815C264.387 780.815 307.231 795.721 332.268 775.346C332.268 775.346 299.192 762.733 264.387 780.815" fill="#213e87" fill-rule="nonzero" opacity="1" stroke="none" vectornator:layerName="path"/>
<path d="M304.95 799.041C304.95 799.041 349.088 810.091 372.01 787.611C372.01 787.611 337.897 778 304.95 799.041" fill="#213e87" fill-rule="nonzero" opacity="1" stroke="none" vectornator:layerName="path"/>
<path d="M347.597 813.678C347.597 813.678 392.528 821.174 413.45 796.927C413.45 796.927 378.603 790.086 347.597 813.678" fill="#213e87" fill-rule="nonzero" opacity="1" stroke="none" vectornator:layerName="path"/>
<path d="M368.239 755.952C368.239 755.952 407.155 768.543 412.777 796.313C412.777 796.313 382.121 787.357 368.239 755.952" fill="#213e87" fill-rule="nonzero" opacity="1" stroke="none" vectornator:layerName="path"/>
<path d="M393.632 826.704C393.632 826.704 439.173 829.074 456.95 802.689C456.95 802.689 421.497 799.775 393.632 826.704" fill="#213e87" fill-rule="nonzero" opacity="1" stroke="none" vectornator:layerName="path"/>
<path d="M407.019 767.084C407.019 767.084 447.2 775.156 456.199 802.146C456.199 802.146 424.671 796.697 407.019 767.084" fill="#213e87" fill-rule="nonzero" opacity="1" stroke="none" vectornator:layerName="path"/>
<path d="M437.376 831.355C437.376 831.355 482.968 830.292 498.474 802.564C498.474 802.564 462.874 802.352 437.376 831.355" fill="#213e87" fill-rule="nonzero" opacity="1" stroke="none" vectornator:layerName="path"/>
<path d="M445.745 770.888C445.745 770.888 486.48 775.891 497.674 802.1C497.674 802.1 465.8 799.06 445.745 770.888" fill="#213e87" fill-rule="nonzero" opacity="1" stroke="none" vectornator:layerName="path"/>
<path d="M896.734 508.149C896.734 508.149 907.936 550.435 884.25 572.24C884.25 572.24 874.461 539.509 896.734 508.149" fill="#213e87" fill-rule="nonzero" opacity="1" stroke="none" vectornator:layerName="path"/>
<path d="M922.04 557.185C922.04 557.185 905.038 597.657 872.473 601.908C872.473 601.908 884.736 569.955 922.04 557.185" fill="#213e87" fill-rule="nonzero" opacity="1" stroke="none" vectornator:layerName="path"/>
<path d="M859.875 543.593C859.875 543.593 850.56 581.829 872.301 601.021C872.301 601.021 880.499 571.413 859.875 543.593" fill="#213e87" fill-rule="nonzero" opacity="1" stroke="none" vectornator:layerName="path"/>
<path d="M909.551 596.907C909.551 596.907 887.239 634.971 854.382 635.117C854.382 635.117 870.857 604.955 909.551 596.907" fill="#213e87" fill-rule="nonzero" opacity="1" stroke="none" vectornator:layerName="path"/>
<path d="M849.751 575.73C849.751 575.73 835.354 612.519 854.297 634.23C854.297 634.23 866.437 605.867 849.751 575.73" fill="#213e87" fill-rule="nonzero" opacity="1" stroke="none" vectornator:layerName="path"/>
<path d="M891.123 636.493C891.123 636.493 863.842 671.426 831.234 667.582C831.234 667.582 851.646 639.66 891.123 636.493" fill="#213e87" fill-rule="nonzero" opacity="1" stroke="none" vectornator:layerName="path"/>
<path d="M834.712 608.109C834.712 608.109 815.44 642.767 831.306 666.673C831.306 666.673 847.146 640.066 834.712 608.109" fill="#213e87" fill-rule="nonzero" opacity="1" stroke="none" vectornator:layerName="path"/>
<path d="M867.306 672.966C867.306 672.966 834.859 703.657 803.254 695.102C803.254 695.102 827.788 670.478 867.306 672.966" fill="#213e87" fill-rule="nonzero" opacity="1" stroke="none" vectornator:layerName="path"/>
<path d="M815.978 636.832C815.978 636.832 791.504 668.343 803.438 694.241C803.438 694.241 823.278 670.205 815.978 636.832" fill="#213e87" fill-rule="nonzero" opacity="1" stroke="none" vectornator:layerName="path"/>
<path d="M838.864 706.06C838.864 706.06 802.88 732.909 772.525 720.938C772.525 720.938 799.9 699.199 838.864 706.06" fill="#213e87" fill-rule="nonzero" opacity="1" stroke="none" vectornator:layerName="path"/>
<path d="M792.258 664.436C792.258 664.436 764.114 693.031 772.814 720.069C772.814 720.069 795.461 698.377 792.258 664.436" fill="#213e87" fill-rule="nonzero" opacity="1" stroke="none" vectornator:layerName="path"/>
<path d="M806.009 735.593C806.009 735.593 767.316 758.742 738.406 743.827C738.406 743.827 767.975 724.904 806.009 735.593" fill="#213e87" fill-rule="nonzero" opacity="1" stroke="none" vectornator:layerName="path"/>
<path d="M764.151 689.591C764.151 689.591 733.05 715.274 738.77 743.005C738.77 743.005 763.659 723.676 764.151 689.591" fill="#213e87" fill-rule="nonzero" opacity="1" stroke="none" vectornator:layerName="path"/>
<path d="M772.375 760.533C772.375 760.533 731.287 779.457 704.249 761.59C704.249 761.59 735.829 745.917 772.375 760.533" fill="#213e87" fill-rule="nonzero" opacity="1" stroke="none" vectornator:layerName="path"/>
<path d="M735.578 782.016C735.578 782.016 692.7 796.95 667.693 776.59C667.693 776.59 700.769 763.982 735.578 782.016" fill="#213e87" fill-rule="nonzero" opacity="1" stroke="none" vectornator:layerName="path"/>
<path d="M695.007 800.238C695.007 800.238 650.883 811.312 627.906 788.815C627.906 788.815 662.064 779.226 695.007 800.238" fill="#213e87" fill-rule="nonzero" opacity="1" stroke="none" vectornator:layerName="path"/>
<path d="M652.335 814.9C652.335 814.9 607.402 822.379 586.483 798.154C586.483 798.154 621.35 791.287 652.335 814.9" fill="#213e87" fill-rule="nonzero" opacity="1" stroke="none" vectornator:layerName="path"/>
<path d="M631.693 757.176C631.693 757.176 592.8 769.765 587.183 797.538C587.183 797.538 617.824 788.605 631.693 757.176" fill="#213e87" fill-rule="nonzero" opacity="1" stroke="none" vectornator:layerName="path"/>
<path d="M606.312 827.947C606.312 827.947 560.754 830.318 543.003 803.876C543.003 803.876 578.441 801.001 606.312 827.947" fill="#213e87" fill-rule="nonzero" opacity="1" stroke="none" vectornator:layerName="path"/>
<path d="M592.95 768.332C592.95 768.332 552.76 776.399 543.744 803.347C543.744 803.347 575.281 797.94 592.95 768.332" fill="#213e87" fill-rule="nonzero" opacity="1" stroke="none" vectornator:layerName="path"/>
<path d="M562.57 832.56C562.57 832.56 516.984 831.459 501.453 803.789C501.453 803.789 537.063 803.622 562.57 832.56" fill="#213e87" fill-rule="nonzero" opacity="1" stroke="none" vectornator:layerName="path"/>
<path d="M554.208 772.11C554.208 772.11 513.46 777.139 502.268 803.286C502.268 803.286 534.144 800.284 554.208 772.11" fill="#213e87" fill-rule="nonzero" opacity="1" stroke="none" vectornator:layerName="path"/>
<path d="M172.997 382.265L170.163 380.219C171.372 378.454 172.072 377.35 172.256 376.914C172.443 376.478 172.521 376.109 172.493 375.819C172.463 375.525 172.332 375.233 172.093 374.934C171.576 374.314 170.178 373.152 167.887 371.462L161.664 366.764L146.801 356.039L140.449 351.658C138.081 349.986 136.522 349.004 135.766 348.714C135.41 348.579 135.09 348.545 134.811 348.596C134.534 348.652 134.205 348.833 133.83 349.15C133.456 349.47 132.618 350.482 131.33 352.184L128.489 350.136C130.826 347.267 133.2 344.16 135.601 340.826C137.768 337.832 139.595 335.122 141.081 332.698L143.919 334.74C142.577 336.778 141.826 338.008 141.671 338.423C141.512 338.846 141.487 339.204 141.592 339.505C141.693 339.808 142.354 340.443 143.576 341.422C145.603 343.147 148.643 345.474 152.702 348.401L156.339 351.027C157.479 349.81 159.577 347.085 162.637 342.848C166.508 337.484 168.812 334.107 169.549 332.728L165.911 330.098C162.637 327.734 160.522 326.239 159.566 325.606C156.661 323.714 154.997 322.681 154.58 322.507C154.295 322.366 154.039 322.31 153.814 322.327C153.593 322.349 153.316 322.49 152.976 322.754C152.644 323.018 151.712 324.122 150.181 326.063L147.346 324.017C149.178 321.835 151.175 319.259 153.324 316.278C155.738 312.937 157.939 309.699 159.936 306.575L162.77 308.621C161.574 310.367 160.887 311.456 160.698 311.896C160.511 312.334 160.429 312.703 160.451 313.006C160.477 313.307 160.61 313.599 160.863 313.876C161.385 314.537 162.779 315.709 165.044 317.384L171.299 322.099L186.164 332.829L192.479 337.19C194.871 338.872 196.434 339.853 197.169 340.126C197.529 340.257 197.852 340.293 198.148 340.241C198.449 340.188 198.775 339.999 199.131 339.685C199.488 339.374 200.312 338.361 201.605 336.653L204.441 338.704C202.103 341.581 199.73 344.691 197.319 348.032C195.168 351.012 193.345 353.718 191.85 356.146L189.02 354.098C190.371 352.049 191.124 350.81 191.29 350.383C191.453 349.96 191.485 349.595 191.382 349.29C191.277 348.987 190.622 348.332 189.417 347.327C187.347 345.657 184.277 343.357 180.216 340.426L173.588 335.64C172.74 336.454 170.708 339.088 167.496 343.533C164.423 347.791 162.396 350.656 161.417 352.118C161.026 352.711 160.679 353.32 160.38 353.943L167.004 358.729C170.307 361.106 172.45 362.571 173.444 363.112C176.36 364.995 178.033 366.043 178.46 366.253C178.737 366.363 178.988 366.408 179.207 366.391C179.422 366.373 179.697 366.245 180.017 366.002C180.343 365.755 181.253 364.681 182.754 362.772L185.587 364.823C183.757 367 181.756 369.586 179.596 372.579C177.189 375.918 174.988 379.145 172.997 382.265" fill="#213e87" fill-rule="nonzero" opacity="1" stroke="none" vectornator:layerName="path"/>
<path d="M205.994 338.159L204.489 336.671C204.91 335.202 205.142 333.89 205.178 332.737C204.489 331.872 203.31 330.54 201.635 328.739C198.567 325.451 196.308 323.087 194.857 321.655L182.304 309.268C181.819 308.789 179.957 307.054 176.715 304.048C174.58 302.012 173.187 300.855 172.547 300.573C172.287 300.464 172.031 300.447 171.778 300.515C171.143 300.713 169.863 301.677 167.926 303.412L165.813 301.331L171.258 295.684C172.349 294.565 173.397 293.494 174.402 292.476C176.581 290.271 178.973 287.791 181.585 285.027L186.272 279.999C186.843 279.427 188.028 278.3 189.843 276.61C190.006 276.447 190.337 276.234 190.828 275.987L191.352 276.174L194.917 280.576C195.177 280.87 196.428 282.268 198.674 284.78L196.815 286.666C194.586 284.536 193.158 283.28 192.55 282.895C192.235 282.698 191.956 282.603 191.715 282.625C191.348 282.661 190.566 283.161 189.37 284.108C187.59 285.506 185.935 286.973 184.419 288.514C183.006 289.947 181.634 291.488 180.296 293.142C182.201 295.418 184.771 298.151 188.005 301.344L193.725 306.989C194.951 306.047 196.158 304.982 197.328 303.79C197.691 303.421 198.975 302.053 201.169 299.672C202.013 298.785 202.458 298.209 202.496 297.941C202.539 297.672 202.46 297.363 202.256 297.009C201.745 296.107 200.673 294.827 199.031 293.17L200.963 291.209L206.939 297.404L213.185 303.268L211.246 305.229C209.116 303.086 207.669 301.898 206.911 301.668C206.357 301.492 205.777 301.61 205.187 302.025C203.873 302.953 202.342 304.295 200.603 306.055C199.048 307.631 197.833 309.01 196.965 310.191L208.625 321.696C209.926 322.978 211.092 324.032 212.127 324.856C213.555 323.708 215.144 322.243 216.898 320.472C218.616 318.733 220.134 317.064 221.452 315.464C222.775 313.865 223.486 312.778 223.567 312.205C223.606 312.018 223.535 311.754 223.368 311.404C222.769 310.225 221.375 308.252 219.191 305.476L221.128 303.513C224.452 307.49 227.301 310.644 229.674 312.987L229.734 313.65C228.877 314.816 227.508 316.362 225.62 318.271L221.686 322.029C217.819 325.801 215.167 328.408 213.739 329.855C213.353 330.246 210.772 333.014 205.994 338.159" fill="#213e87" fill-rule="nonzero" opacity="1" stroke="none" vectornator:layerName="path"/>
<path d="M236.439 320.863L236.719 319.97C238.265 320.137 239.43 320.142 240.219 319.981C241.007 319.811 241.692 319.487 242.278 318.997C242.963 318.426 243.347 317.814 243.426 317.17C243.502 316.526 243.364 315.809 242.997 315.029C242.632 314.241 241.569 312.766 239.811 310.593C236.349 306.301 234.43 303.922 234.045 303.462L214.372 279.915C212.212 277.328 210.234 275.022 208.442 272.999C206.651 270.974 205.528 269.828 205.064 269.564C204.834 269.413 204.596 269.347 204.332 269.36C203.962 269.364 203.527 269.538 203.033 269.879L199.363 272.692L197.121 270.006C200.611 267.371 204.061 264.629 207.477 261.771C210.329 259.386 212.704 257.264 214.606 255.403L216.85 258.082C215.119 259.628 214.104 260.582 213.788 260.947C213.427 261.419 213.251 261.889 213.266 262.355C213.275 262.821 213.563 263.45 214.119 264.238C215.379 265.973 217.247 268.31 219.706 271.253L228.84 282.187L239.615 294.961C242.325 298.208 244.227 301.001 245.331 303.35C246.428 305.695 247.1 308.21 247.352 310.889C247.502 312.732 247.44 314.645 247.163 316.633C246.879 318.617 246.413 320.331 245.767 321.776C245.116 323.221 244.322 324.331 243.388 325.115C242.711 325.673 241.896 326.107 240.927 326.407C239.836 324.99 238.338 323.146 236.439 320.863" fill="#213e87" fill-rule="nonzero" opacity="1" stroke="none" vectornator:layerName="path"/>
<path d="M220.432 254.269L218.6 251.54L227.917 245.689L231.647 243.061L235.346 240.392L236.39 239.636L238.213 242.363C236.158 243.742 234.999 244.817 234.73 245.595C234.578 245.983 234.636 246.492 234.904 247.132C235.572 248.637 237.442 251.684 240.517 256.275L245.582 263.844L248.174 267.64C250.841 271.619 252.533 274.048 253.25 274.922C254.772 276.861 256.319 278.215 257.875 278.984C259.432 279.753 261.212 280.023 263.218 279.804C265.221 279.581 267.372 278.701 269.668 277.159C272.313 275.39 274.07 273.464 274.944 271.385C275.813 269.304 276.034 267.215 275.59 265.119C275.152 263.017 273.378 259.65 270.276 255.017L265.822 248.36C261.976 242.619 259.574 239.155 258.61 237.968C256.711 235.271 255.479 233.703 254.916 233.265C254.558 233.003 254.171 232.879 253.761 232.9C252.909 232.939 251.449 233.598 249.398 234.878L247.571 232.146C251.075 230.059 253.147 228.795 253.795 228.363C253.944 228.264 254.188 228.084 254.513 227.826L260.604 223.422L262.432 226.149C260.677 227.324 259.683 228.226 259.451 228.85C259.353 229.173 259.398 229.621 259.584 230.205C259.771 230.787 261.103 233.089 263.574 237.096C266.039 241.103 268.036 244.238 269.55 246.496L274.675 254.151C275.983 256.108 277.215 258.208 278.373 260.456C279.53 262.702 280.232 264.815 280.475 266.792C280.713 268.772 280.554 270.814 279.996 272.916C279.438 275.018 278.442 276.996 276.994 278.84C275.543 280.696 273.595 282.439 271.139 284.08C268.274 285.999 265.309 287.339 262.241 288.104C259.984 288.675 257.907 288.797 256.022 288.469C254.141 288.142 252.443 287.5 250.942 286.536C249.437 285.581 248.191 284.513 247.221 283.337C246.589 282.632 245.125 280.56 242.827 277.127L238.668 270.853L233.126 262.573C231.091 259.528 229.197 256.829 227.455 254.478C226.747 253.565 226.173 252.942 225.729 252.61C225.461 252.446 225.031 252.324 224.441 252.249L220.432 254.269Z" fill="#213e87" fill-rule="nonzero" opacity="1" stroke="none" vectornator:layerName="path"/>
<path d="M303.773 262.074L302.367 258.877C304.302 257.964 305.461 257.372 305.841 257.088C306.225 256.805 306.477 256.526 306.597 256.262C306.717 255.993 306.758 255.671 306.698 255.295C306.573 254.497 305.946 252.79 304.828 250.172L301.839 242.972L294.439 226.205L291.173 219.209C289.977 216.572 289.127 214.934 288.622 214.3C288.38 214.008 288.124 213.815 287.86 213.716C287.59 213.624 287.212 213.615 286.729 213.703C286.245 213.785 285.017 214.236 283.042 215.052L281.629 211.852C285.097 210.553 288.706 209.076 292.472 207.416C295.854 205.924 298.798 204.509 301.31 203.171L302.717 206.373C300.533 207.453 299.271 208.129 298.918 208.41C298.571 208.692 298.364 208.988 298.306 209.302C298.244 209.613 298.485 210.498 299.045 211.96C299.925 214.474 301.373 218.021 303.387 222.593L305.201 226.703C306.799 226.23 309.992 224.938 314.771 222.829C320.825 220.16 324.52 218.414 325.851 217.596L324.039 213.489C322.411 209.793 321.344 207.433 320.84 206.403C319.294 203.306 318.383 201.571 318.102 201.209C317.934 200.947 317.739 200.762 317.541 200.667C317.337 200.571 317.024 200.556 316.601 200.618C316.174 200.67 314.814 201.153 312.513 202.052L311.106 198.855C313.784 197.9 316.814 196.68 320.178 195.198C323.944 193.539 327.481 191.862 330.783 190.176L332.192 193.371C330.283 194.273 329.137 194.868 328.752 195.149C328.372 195.435 328.11 195.712 327.975 195.984C327.848 196.255 327.818 196.575 327.893 196.94C328.007 197.775 328.617 199.491 329.727 202.082L332.742 209.317L340.135 226.084L343.377 233.044C344.588 235.704 345.445 237.338 345.937 237.952C346.179 238.244 346.439 238.44 346.725 238.54C347.01 238.644 347.388 238.652 347.852 238.56C348.32 238.467 349.542 238.014 351.521 237.198L352.937 240.4C349.458 241.697 345.84 243.181 342.067 244.843C338.707 246.322 335.761 247.739 333.251 249.077L331.838 245.878C334.041 244.793 335.325 244.108 335.677 243.825C336.033 243.539 336.242 243.241 336.31 242.923C336.375 242.614 336.143 241.718 335.606 240.241C334.664 237.75 333.178 234.214 331.159 229.636L327.865 222.153C326.721 222.425 323.635 223.671 318.615 225.882C313.812 228 310.612 229.445 309.03 230.209C308.39 230.525 307.784 230.877 307.209 231.259L310.507 238.74C312.148 242.463 313.262 244.813 313.844 245.777C315.409 248.877 316.32 250.629 316.579 251.027C316.768 251.259 316.962 251.422 317.157 251.518C317.355 251.619 317.651 251.643 318.052 251.596C318.456 251.546 319.787 251.082 322.048 250.198L323.457 253.395C320.777 254.346 317.745 255.57 314.366 257.058C310.599 258.718 307.071 260.391 303.773 262.074" fill="#213e87" fill-rule="nonzero" opacity="1" stroke="none" vectornator:layerName="path"/>
<path d="M359.641 238.262L367.223 236.338L366.287 233.188C363.683 233.855 362.064 234.094 361.434 233.9C361.014 233.748 360.711 233.377 360.533 232.775C360.281 231.929 360.174 229.619 360.223 225.848L360.376 220.903L377.126 215.922L382.385 223.334C383.308 224.612 383.864 225.563 384.049 226.188C384.202 226.686 384.135 227.094 383.864 227.403C383.587 227.719 382.155 228.331 379.57 229.237L380.506 232.387L391.863 228.674L401.006 226.286L400.065 223.139C399.415 223.25 398.921 223.33 398.582 223.375C397.532 223.604 396.866 223.705 396.587 223.684C396.308 223.656 396.033 223.574 395.78 223.433C395.513 223.291 395.217 223.023 394.886 222.634L392.541 219.574L388.981 215.035L362.74 180.181L358.164 181.542L357.846 190.913L356.498 217.631C356.255 222.69 356.088 226.074 356.002 227.789C355.727 231.468 355.545 233.6 355.448 234.186C355.347 234.777 355.216 235.221 355.044 235.532C354.879 235.844 354.643 236.101 354.336 236.316C354.035 236.529 353.026 236.971 351.317 237.643L352.253 240.795L359.641 238.262ZM361.471 194.776L374.185 212.044C372.257 212.767 370.043 213.497 367.548 214.238C364.977 215.003 362.648 215.623 360.558 216.098L361.471 194.776Z" fill="#213e87" fill-rule="nonzero" opacity="1" stroke="none" vectornator:layerName="path"/>
<path d="M403.526 226.154L403.152 224.177C403.697 223.784 404.436 223.122 405.364 222.203C405.776 221.81 406.029 221.495 406.122 221.263C406.201 221.117 406.225 220.966 406.197 220.814C406.205 220.144 405.875 217.834 405.203 213.883C404.528 209.925 403.667 205.186 402.626 199.67C401.097 191.558 400.129 186.557 399.714 184.665C398.718 179.853 398.052 177.12 397.715 176.465C397.558 176.177 397.348 175.975 397.088 175.866C396.504 175.576 394.743 175.645 391.817 176.059L391.166 172.628C394.033 172.301 397.288 171.795 400.943 171.108C404.977 170.347 408.797 169.521 412.413 168.621L413.059 172.059C410.519 172.671 408.995 173.195 408.484 173.637C408.278 173.837 408.142 174.122 408.093 174.49C408.039 174.859 408.237 176.461 408.688 179.299C409.139 182.136 409.77 185.715 410.584 190.027C410.672 190.486 411.378 194.195 412.718 201.145C413.457 204.809 414.178 208.437 414.882 212.043C415.58 215.641 416.029 217.821 416.222 218.585C419.304 218.22 421.399 217.93 422.524 217.72C425.896 217.084 428.786 216.288 431.195 215.33C432.06 215.008 432.561 214.739 432.711 214.525C432.851 214.312 432.956 213.799 433.016 212.989C433.08 210.952 433.091 208.633 433.05 206.03L435.865 205.5C435.919 206.234 435.96 206.662 435.985 206.79L436.589 214.731C436.87 217.202 437.053 218.682 437.145 219.167C436.516 219.5 435.891 219.768 435.264 219.968C433.926 220.355 431.839 220.816 428.99 221.353C428.608 221.428 425.984 221.862 421.109 222.656C417.427 223.26 414.865 223.693 413.431 223.962C411.251 224.376 407.947 225.102 403.526 226.154" fill="#213e87" fill-rule="nonzero" opacity="1" stroke="none" vectornator:layerName="path"/>
<path d="M441.78 219.201L441.576 217.202C442.16 216.854 442.95 216.265 443.959 215.426C444.403 215.069 444.678 214.78 444.788 214.558C444.882 214.417 444.919 214.269 444.906 214.114C444.97 213.45 444.837 211.119 444.515 207.123C444.189 203.126 443.744 198.33 443.184 192.742C442.368 184.527 441.835 179.457 441.588 177.538C441.015 172.661 440.588 169.881 440.311 169.198C440.178 168.893 439.987 168.678 439.738 168.547C439.175 168.212 437.421 168.12 434.468 168.283L434.12 164.807C437 164.732 440.294 164.508 443.987 164.139C448.077 163.733 451.955 163.237 455.634 162.66L455.975 166.14C453.392 166.527 451.831 166.92 451.279 167.317C451.053 167.497 450.903 167.77 450.815 168.135C450.734 168.496 450.794 170.113 450.995 172.973C451.193 175.844 451.515 179.457 451.947 183.821C451.996 184.293 452.383 188.049 453.108 195.089C453.529 198.8 453.935 202.48 454.322 206.128C454.704 209.781 454.964 211.992 455.084 212.768C458.187 212.671 460.299 212.566 461.442 212.45C464.852 212.113 467.8 211.569 470.286 210.826C471.171 210.577 471.701 210.356 471.865 210.157C472.028 209.957 472.172 209.454 472.3 208.649C472.543 206.631 472.758 204.316 472.942 201.72L475.79 201.437C475.781 202.173 475.785 202.605 475.796 202.736L475.715 210.696C475.775 213.182 475.828 214.674 475.878 215.166C475.227 215.443 474.576 215.658 473.934 215.799C472.569 216.066 470.452 216.345 467.566 216.635C467.177 216.671 464.523 216.88 459.599 217.247C455.878 217.528 453.289 217.734 451.835 217.88C449.626 218.103 446.274 218.542 441.78 219.201" fill="#213e87" fill-rule="nonzero" opacity="1" stroke="none" vectornator:layerName="path"/>
<path d="M485.104 215.024L492.926 215.322L492.918 212.037C490.227 211.936 488.61 211.711 488.061 211.346C487.696 211.084 487.511 210.641 487.511 210.014C487.507 209.132 488.065 206.886 489.175 203.281L490.717 198.589L508.193 198.542L511.146 207.139C511.67 208.627 511.934 209.699 511.934 210.347C511.934 210.871 511.758 211.243 511.41 211.464C511.053 211.687 509.514 211.867 506.767 212.005L506.776 215.288L518.719 214.944L528.169 215.239L528.16 211.953C527.501 211.878 527.003 211.816 526.666 211.762C525.592 211.685 524.931 211.595 524.667 211.492C524.403 211.393 524.167 211.232 523.963 211.023C523.748 210.817 523.542 210.478 523.329 210.008L521.948 206.407L519.823 201.045L504.511 160.192L499.74 160.203L496.776 169.099L487.925 194.348C486.263 199.13 485.147 202.329 484.576 203.948C483.27 207.397 482.491 209.392 482.235 209.926C481.971 210.465 481.716 210.86 481.473 211.109C481.224 211.354 480.921 211.539 480.565 211.657C480.219 211.775 479.122 211.915 477.294 212.073L477.297 215.359L485.104 215.024ZM499.158 173.827L506.473 193.989C504.414 194.138 502.091 194.215 499.484 194.217C496.802 194.224 494.393 194.163 492.256 194.024L499.158 173.827Z" fill="#213e87" fill-rule="nonzero" opacity="1" stroke="none" vectornator:layerName="path"/>
<path d="M549.23 165.056L549.678 161.803L560.524 163.641L565.057 164.165L569.598 164.64L570.882 164.764L570.425 168.02C567.975 167.678 566.386 167.708 565.673 168.108C565.304 168.295 565.003 168.713 564.78 169.372C564.273 170.938 563.64 174.457 562.873 179.93L561.615 188.947L561.022 193.505C560.361 198.248 560.009 201.188 559.957 202.318C559.803 204.783 560.054 206.818 560.7 208.431C561.353 210.041 562.504 211.43 564.142 212.598C565.783 213.767 567.979 214.542 570.711 214.924C573.869 215.362 576.461 215.1 578.494 214.127C580.523 213.157 582.084 211.744 583.158 209.882C584.223 208.021 585.142 204.332 585.922 198.809L587.03 190.875C587.985 184.032 588.496 179.847 588.567 178.324C588.945 175.043 589.076 173.055 588.936 172.348C588.844 171.915 588.642 171.567 588.324 171.311C587.661 170.768 586.136 170.291 583.757 169.881L584.21 166.626C588.211 167.399 590.603 167.844 591.369 167.951C591.549 167.975 591.848 168.002 592.262 168.028L599.739 168.795L599.288 172.052C597.203 171.76 595.857 171.769 595.268 172.08C594.981 172.252 594.712 172.619 594.459 173.177C594.212 173.74 593.675 176.336 592.849 180.974C592.024 185.608 591.423 189.273 591.047 191.968L589.772 201.091C589.445 203.423 588.966 205.809 588.333 208.257C587.699 210.702 586.815 212.747 585.679 214.383C584.541 216.017 583.066 217.436 581.249 218.634C579.433 219.833 577.367 220.64 575.054 221.054C572.748 221.469 570.131 221.473 567.208 221.067C563.794 220.588 560.683 219.611 557.889 218.141C555.822 217.06 554.196 215.77 553.013 214.273C551.821 212.772 550.982 211.166 550.496 209.446C550.009 207.726 549.801 206.103 549.854 204.583C549.854 203.634 550.14 201.117 550.707 197.022L551.795 189.574L553.168 179.703C553.674 176.083 554.065 172.808 554.329 169.886C554.409 168.737 554.392 167.889 554.286 167.345C554.196 167.045 553.951 166.667 553.567 166.216L549.23 165.056Z" fill="#213e87" fill-rule="nonzero" opacity="1" stroke="none" vectornator:layerName="path"/>
<path d="M593.47 219.775C596.075 220.304 597.584 220.551 597.994 220.527C598.267 220.49 598.525 220.379 598.742 220.194C598.965 220.009 599.225 219.582 599.51 218.899C599.89 217.976 600.655 215.696 601.808 212.058C602.458 209.995 603.225 207.289 604.11 203.931L607.305 191.79L609.997 180.73C610.459 178.881 610.71 177.67 610.753 177.086C610.803 176.509 610.753 176.06 610.614 175.736C610.472 175.416 610.178 175.119 609.746 174.84C609.31 174.565 607.973 174.037 605.72 173.253L606.555 170.075C609.28 171.016 611.312 171.658 612.628 172.004L617.45 173.107L620.525 173.751C623.246 181.754 626.639 191.039 630.708 201.608C633.634 209.23 636.138 215.247 638.21 219.662L640.52 210.888C644.102 197.268 646.09 189.218 646.477 186.749C646.649 185.789 646.597 185.13 646.346 184.765C645.959 184.174 644.325 183.472 641.435 182.66L642.266 179.48C644.89 180.391 647.306 181.138 649.532 181.724C651.697 182.295 654.525 182.929 657.997 183.624L657.162 186.802C654.473 186.171 652.818 185.982 652.216 186.227C652.008 186.309 651.832 186.463 651.688 186.699C651.031 187.88 650.05 190.717 648.757 195.209C647.465 199.701 646.543 203.023 645.968 205.176C641.536 222.011 638.985 232.264 638.311 235.931L637.77 236.155C636.067 235.313 634.313 234.482 632.498 233.672C627.843 222.674 621.423 206.319 613.253 184.597L608.295 203.428C607.268 207.336 606.266 211.421 605.289 215.696C604.593 218.637 604.251 220.445 604.26 221.12C604.277 221.452 604.37 221.738 604.52 221.978C604.672 222.223 605.003 222.451 605.514 222.666C606.873 223.239 607.885 223.61 608.539 223.784C608.668 223.819 608.9 223.864 609.235 223.928L608.368 227.207C604.236 225.977 601.883 225.279 601.299 225.126C599.177 224.568 596.272 223.915 592.581 223.159L593.47 219.775Z" fill="#213e87" fill-rule="nonzero" opacity="1" stroke="none" vectornator:layerName="path"/>
<path d="M684.459 193.744L683.255 197.027C681.071 196.317 679.755 195.939 679.31 195.904C678.862 195.861 678.529 195.894 678.299 195.992C678.063 196.085 677.867 196.244 677.706 196.463C677.401 196.828 677.015 197.59 676.54 198.747C676.266 199.366 675.782 200.56 675.123 202.312C672.86 208.328 671.638 211.564 671.466 212.03L666.058 226.861L663.796 233.661C662.882 236.191 662.379 237.874 662.328 238.71C662.27 239.081 662.315 239.399 662.45 239.65C662.581 239.91 662.845 240.176 663.238 240.438C663.629 240.709 664.831 241.239 666.846 242.025L665.637 245.312C662.244 243.844 658.587 242.398 654.671 240.971C651.257 239.719 648.171 238.71 645.431 237.939L646.636 234.656C648.912 235.373 650.237 235.761 650.606 235.809C651.098 235.877 651.446 235.854 651.671 235.744C651.89 235.63 652.075 235.471 652.201 235.268C652.36 234.991 652.871 233.872 653.726 231.905C654.926 229.01 655.996 226.311 656.906 223.81L662.512 208.431C664.295 203.548 665.373 200.388 665.755 198.941C666.79 195.791 667.374 193.789 667.496 192.948C667.563 192.608 667.554 192.331 667.488 192.108C667.415 191.891 667.219 191.659 666.886 191.408C666.551 191.165 665.267 190.581 663.041 189.658L664.25 186.373C666.837 187.543 669.86 188.756 673.313 190.017C677.187 191.434 680.916 192.679 684.459 193.744" fill="#213e87" fill-rule="nonzero" opacity="1" stroke="none" vectornator:layerName="path"/>
<path d="M687.341 255.171C687.944 249.384 688.507 243.881 689.043 238.667L690.332 224.581C691.388 213.547 691.957 206.938 692.03 204.756C692.084 202.577 691.966 201.256 691.665 200.794C691.234 200.127 690.068 199.315 688.184 198.366L689.677 195.207C694.491 197.72 697.43 199.225 698.5 199.725L709.68 204.662L708.188 207.822C706.451 207.034 705.139 206.56 704.267 206.403C703.756 206.308 703.365 206.33 703.08 206.472C702.794 206.613 702.569 206.86 702.401 207.215C702.064 207.927 701.684 210.489 701.235 214.906C700.986 217.453 700.849 218.827 700.819 219.033C700.799 219.239 700.761 219.49 700.716 219.78L698.161 245.369L714.172 229.056C714.542 228.683 716.328 226.793 719.532 223.381C721.789 220.985 723.249 219.342 723.897 218.462C724.069 218.198 724.234 217.925 724.363 217.642C724.557 217.244 724.645 216.92 724.636 216.662C724.623 216.416 724.544 216.199 724.402 216.014C724.292 215.874 723.962 215.645 723.391 215.316C722.107 214.541 721.018 213.92 720.107 213.459L721.6 210.302L729.283 214.285L736.04 217.126L734.545 220.291C732.463 219.566 731.196 219.265 730.73 219.398C729.929 219.623 727.505 221.756 723.461 225.797L718.484 230.647L708.955 240.104C700.832 248.175 695.187 253.941 692.039 257.389L687.341 255.171Z" fill="#213e87" fill-rule="nonzero" opacity="1" stroke="none" vectornator:layerName="path"/>
<path d="M713.548 267.834L714.667 266.039C716.193 266.13 717.524 266.067 718.665 265.85C719.352 264.994 720.395 263.549 721.789 261.522C724.318 257.809 726.133 255.084 727.211 253.358L736.555 238.4C736.916 237.822 738.202 235.624 740.431 231.804C741.945 229.274 742.774 227.664 742.901 226.977C742.959 226.698 742.913 226.446 742.795 226.212C742.465 225.637 741.236 224.591 739.121 223.088L740.691 220.572L747.393 224.651C748.735 225.472 750.001 226.255 751.217 227.018C753.843 228.656 756.782 230.453 760.053 232.394L765.979 235.871C766.666 236.298 768.03 237.211 770.072 238.61C770.269 238.733 770.546 239.008 770.894 239.431L770.823 239.987L767.317 244.432C767.083 244.745 765.992 246.272 764.034 249.016L761.786 247.614C763.374 244.968 764.289 243.307 764.536 242.628C764.65 242.28 764.68 241.986 764.616 241.754C764.495 241.402 763.836 240.749 762.653 239.791C760.905 238.357 759.106 237.071 757.268 235.922C755.565 234.857 753.759 233.852 751.85 232.91C750.047 235.267 747.938 238.37 745.533 242.231L741.273 249.046C742.465 250.038 743.768 250.976 745.181 251.861C745.625 252.138 747.249 253.087 750.047 254.708C751.094 255.337 751.754 255.645 752.026 255.625C752.295 255.61 752.589 255.464 752.877 255.185C753.645 254.487 754.663 253.162 755.921 251.2L758.262 252.656L753.523 259.842L749.166 267.216L746.83 265.758C748.449 263.209 749.289 261.539 749.351 260.749C749.405 260.164 749.166 259.632 748.625 259.142C747.438 258.06 745.791 256.866 743.689 255.552C741.818 254.378 740.199 253.497 738.862 252.911L730.185 266.799C729.221 268.348 728.445 269.72 727.87 270.909C729.3 272.052 731.074 273.284 733.195 274.605C735.259 275.904 737.221 277.016 739.072 277.954C740.925 278.893 742.134 279.344 742.72 279.305C742.901 279.301 743.147 279.176 743.455 278.938C744.468 278.09 746.096 276.297 748.327 273.565L750.667 275.023C747.509 279.135 745.056 282.607 743.287 285.437L742.658 285.639C741.329 285.057 739.529 284.059 737.247 282.633L732.714 279.614C728.183 276.666 725.068 274.654 723.341 273.576C722.875 273.286 719.62 271.371 713.548 267.834" fill="#213e87" fill-rule="nonzero" opacity="1" stroke="none" vectornator:layerName="path"/>
<path d="M777.642 247.157L779.635 244.681C780.036 245.005 781.387 246.188 783.684 248.222C784.835 249.237 786.482 250.607 788.621 252.334C790.463 253.817 792.078 255.041 793.474 256.001C795.756 257.64 797.596 259.025 799.014 260.169C801.781 262.402 803.669 264.294 804.663 265.855C805.657 267.416 806.048 269.301 805.846 271.524C805.636 273.742 804.697 275.895 803.022 277.976C801.038 280.439 798.569 282.15 795.629 283.106C792.681 284.063 789.368 284.038 785.69 283.011C785.381 284.263 785.132 285.588 784.934 286.999C784.734 288.403 784.603 289.247 784.541 289.526C784.483 289.812 784.432 290.087 784.382 290.348L782.759 300.683C782.342 303.438 782.117 304.922 782.087 305.13C781.778 308.211 781.623 310.049 781.634 310.659C781.647 311.267 781.739 311.754 781.906 312.126C782.072 312.497 782.561 313.017 783.349 313.687L781.157 316.412C778.585 314.067 776.695 312.405 775.469 311.419C774.06 310.286 772.6 309.242 771.065 308.274C771.342 307.763 771.595 307.011 771.834 306.021L774.904 290.709C775.785 286.305 776.375 282.767 776.669 280.078C776.824 278.725 776.815 277.617 776.656 276.739L777.773 275.981C779.815 277.763 781.606 278.794 783.152 279.078C784.696 279.361 786.441 279.052 788.391 278.15C790.337 277.248 792.069 275.863 793.566 274.004C795.08 272.125 795.947 270.248 796.175 268.376C796.4 266.499 796.136 264.861 795.406 263.456C794.921 262.563 793.729 261.348 791.822 259.815C790.974 259.128 790.077 258.544 789.138 258.052C788.483 258.737 787.09 260.343 784.96 262.862C780.217 268.543 777.06 272.355 775.503 274.294C773.036 277.349 770.453 280.611 767.765 284.079C764.445 288.33 762.573 290.756 762.15 291.36C761.287 292.549 760.786 293.367 760.627 293.81C760.574 294.037 760.582 294.286 760.64 294.546C760.694 294.813 760.866 295.124 761.143 295.483C761.42 295.843 762.401 296.734 764.071 298.152L761.877 300.876C758.985 298.27 756.006 295.729 752.94 293.26C750.22 291.068 747.626 289.118 745.182 287.417L747.383 284.693C749.434 286.213 750.696 287.048 751.171 287.198C751.422 287.297 751.66 287.317 751.871 287.252C752.081 287.194 752.391 286.964 752.773 286.567C753.531 285.871 754.594 284.738 755.951 283.181L763.316 274.39L772.454 263.046L777.492 256.463C779.521 253.901 780.652 252.295 780.893 251.642C780.985 251.355 781 251.078 780.925 250.809C780.708 250.236 779.609 249.016 777.642 247.157" fill="#213e87" fill-rule="nonzero" opacity="1" stroke="none" vectornator:layerName="path"/>
<path d="M832.271 311.683L830.22 309.54C832.38 307.41 833.847 305.847 834.633 304.853C834.998 303.573 834.91 302.005 834.364 300.154C833.823 298.297 832.816 296.596 831.33 295.046C829.226 292.841 826.956 291.754 824.504 291.791C822.059 291.825 819.967 292.671 818.217 294.331C816.985 295.544 816.145 296.695 815.688 297.771C815.239 298.853 815.093 299.931 815.252 301.009C815.406 302.083 815.89 303.425 816.703 305.031C817.371 306.192 818.352 307.786 819.621 309.808C820.91 311.829 821.724 313.16 822.071 313.796C822.943 315.499 823.48 317.025 823.712 318.38C823.937 319.733 823.907 320.998 823.637 322.177C823.371 323.355 822.832 324.622 822.018 325.992C821.213 327.36 820.113 328.702 818.737 330.023C816.308 332.337 813.768 333.93 811.093 334.815C809.083 335.47 806.948 335.769 804.696 335.698C802.444 335.625 800.444 335.245 798.703 334.56C795.909 333.458 793.21 331.53 790.576 328.769C788.639 326.746 787.144 324.742 786.084 322.758C785.019 320.774 784.113 318.331 783.367 315.432C785.991 313.873 789.515 310.998 793.938 306.813L795.991 308.958C794.589 310.221 792.97 311.923 791.143 314.062C790.567 315.806 790.554 317.854 791.104 320.21C791.662 322.569 792.781 324.633 794.469 326.411C795.965 327.976 797.617 329.067 799.412 329.677C801.207 330.289 802.918 330.336 804.563 329.814C806.205 329.297 807.732 328.358 809.158 327.004C810.35 325.865 811.194 324.702 811.692 323.506C812.179 322.316 812.282 321.062 812.014 319.754C811.741 318.438 810.878 316.484 809.448 313.877C807.331 310.221 805.993 307.779 805.435 306.545C804.576 304.659 804.194 302.838 804.303 301.093C804.41 299.349 804.924 297.636 805.83 295.957C806.738 294.275 807.955 292.71 809.465 291.263C811.582 289.24 813.91 287.761 816.431 286.831C818.964 285.897 821.32 285.59 823.506 285.901C825.683 286.219 827.742 286.973 829.692 288.16C831.637 289.352 833.415 290.775 834.998 292.435C836.653 294.17 838.075 296.025 839.284 297.999C840.473 299.976 841.309 301.883 841.757 303.719L841.27 304.567C839.82 305.497 838.444 306.476 837.164 307.494C835.882 308.509 834.246 309.907 832.271 311.683" fill="#213e87" fill-rule="nonzero" opacity="1" stroke="none" vectornator:layerName="path"/>
<path d="M863.888 328.511L861.129 330.649C859.656 328.878 858.75 327.858 858.393 327.59C858.037 327.321 857.732 327.167 857.485 327.121C857.24 327.083 856.989 327.111 856.738 327.209C856.289 327.355 855.55 327.791 854.537 328.517C853.97 328.895 852.928 329.649 851.423 330.782C846.3 334.656 843.543 336.743 843.15 337.048L830.668 346.702L825.132 351.254C823.002 352.899 821.69 354.061 821.182 354.735C820.952 355.018 820.817 355.306 820.789 355.596C820.763 355.886 820.851 356.251 821.044 356.682C821.229 357.118 821.955 358.207 823.241 359.951L820.469 362.089C818.382 359.036 816.063 355.858 813.516 352.57C811.272 349.682 809.213 347.183 807.317 345.072L810.08 342.932C811.62 344.752 812.535 345.79 812.829 346.034C813.198 346.35 813.512 346.515 813.759 346.541C814.008 346.565 814.246 346.526 814.463 346.427C814.748 346.277 815.768 345.598 817.542 344.392C820.112 342.588 822.444 340.874 824.551 339.24L837.505 329.228C841.61 326.048 844.215 323.948 845.306 322.926C847.863 320.817 849.42 319.436 849.97 318.782C850.208 318.535 850.35 318.296 850.423 318.077C850.476 317.85 850.433 317.547 850.27 317.16C850.128 316.776 849.36 315.599 847.968 313.632L850.736 311.492C852.301 313.869 854.208 316.503 856.461 319.409C858.986 322.681 861.468 325.715 863.888 328.511" fill="#213e87" fill-rule="nonzero" opacity="1" stroke="none" vectornator:layerName="path"/>
<path d="M826.42 370.787L829.147 369.155C830.644 371.437 831.655 372.719 832.184 372.996C832.72 373.273 833.345 373.301 834.067 373.082C835.151 372.704 838.121 371.064 842.961 368.154L863.121 356.067C868.622 352.765 871.663 350.862 872.242 350.351L869.771 346.235C868.521 344.157 867.349 342.379 866.254 340.901C865.801 340.298 865.489 339.987 865.335 339.965C865.124 339.911 864.661 340.038 863.958 340.334C862.249 341.002 860.411 341.904 858.466 343.046L856.997 340.59C861.519 337.747 864.068 336.141 864.643 335.767C865.595 335.134 866.597 334.402 867.654 333.579L868.128 333.611C868.594 334.586 869.11 335.593 869.692 336.646C870.649 338.359 872.541 341.584 875.388 346.327L882.446 358.105C885.373 362.981 887.361 366.237 888.409 367.86C888.976 368.727 889.588 369.595 890.23 370.46L890.058 370.928C888.594 371.583 887.335 372.195 886.275 372.766C886.09 372.85 883.612 374.269 878.847 377.033L877.372 374.579C879.094 373.516 880.683 372.397 882.131 371.227C882.856 370.636 883.269 370.224 883.348 369.999C883.389 369.822 883.277 369.462 883.015 368.921C882.236 367.229 881.184 365.26 879.837 363.031L877.346 358.872C876.541 359.295 873.449 361.12 868.09 364.332L847.931 376.427C843.079 379.335 840.223 381.175 839.338 381.948C838.834 382.433 838.578 382.989 838.569 383.608C838.561 384.226 839.216 385.74 840.536 388.145L837.812 389.785C835.744 385.92 833.944 382.706 832.405 380.14C830.732 377.37 828.748 374.25 826.42 370.787" fill="#213e87" fill-rule="nonzero" opacity="1" stroke="none" vectornator:layerName="path"/>
<path d="M540.565 347.918C540.565 347.918 536.891 345.268 535.431 346.743C535.431 346.743 533.389 348.68 534.849 351.272L539.672 357.606C539.672 357.606 540.262 358.467 543.354 358.609L571.477 358.609L571.477 374.734L535.876 374.734C535.876 374.734 532.492 374.621 532.354 376.94C532.354 376.94 531.171 379.141 536.161 380.73C536.161 380.73 539.24 381.782 539.109 384.558L539.24 405.502C539.24 405.502 541.295 412.242 548.181 412.242L578.67 412.41C578.67 412.41 596.683 411.811 600.508 405.951L600.508 438.031C600.508 438.031 601.384 440.839 605.335 440.236C605.335 440.236 616.017 441.269 618.244 432.922L618.244 384.401L630.837 384.558C630.837 384.558 634.352 384.401 633.768 378.114C633.768 378.114 633.751 373.865 630.535 373.566L617.941 373.566L618.081 341.031C618.081 341.031 618.235 338.837 614.72 338.528L593.903 336.791C593.903 336.791 590.823 336.638 590.669 338.704C590.669 338.704 590.396 340.6 592.133 341.182C592.133 341.182 600.78 344.692 600.639 346.885L600.78 397.006C600.78 397.006 594.347 402.44 589.494 401.996L559.759 402.578C559.759 402.578 557.412 402.44 557.118 399.657L557.264 384.558L585.116 384.558C585.116 384.558 588.756 383.985 589.357 379.282L589.357 350.58C589.357 350.58 589.658 348.349 585.116 348.235C585.116 348.235 540.851 348.68 540.565 347.918" fill="#ffffff" fill-rule="nonzero" opacity="1" stroke="none" vectornator:layerName="path"/>
<path d="M398.648 388.648C394.083 388.648 390.381 382.76 390.381 375.475C390.381 368.193 394.083 362.28 398.648 362.28C403.233 362.28 406.93 368.193 406.93 375.475C406.93 382.76 403.233 388.648 398.648 388.648M431.842 357.455C432.149 352.615 427.46 352.312 427.46 352.312L407.512 352.312L408.096 342.794C408.261 339.571 403.853 339.425 403.853 339.425L389.359 338.25C383.929 337.232 384.511 340.445 384.511 340.445C384.376 342.953 388.479 345.441 388.479 345.441C389.787 346.017 389.645 352.446 389.645 352.446L370.743 352.446C370.298 352.446 366.195 350.262 366.195 350.262C363.558 349.54 363.116 351.149 363.116 351.149C360.629 354.226 367.21 360.236 367.21 360.236C368.398 362.136 370.588 362.28 370.588 362.28L377.771 362.28C371.183 369.168 372.345 376.784 372.345 376.784C373.657 396.848 398.292 398.633 398.292 398.633C422.611 397.007 424.516 377.216 424.516 377.216C425.693 369.737 419.678 361.842 419.678 361.842L428.332 361.842C432.149 361.988 431.842 357.455 431.842 357.455" fill="#ffffff" fill-rule="nonzero" opacity="1" stroke="none" vectornator:layerName="path"/>
<path d="M431.41 337.639C431.41 337.639 428.044 336.767 427.15 339.249C427.15 339.249 425.989 342.064 429.787 343.236C429.787 343.236 436.828 345.442 437.131 347.619L437.131 410.344C437.131 410.344 439.774 414.587 449.72 411.076C449.72 411.076 454.717 409.176 454.717 403.318L454.717 375.911L467.602 375.911C467.602 375.911 470.686 375.911 470.383 368.46C470.383 368.46 469.938 364.79 466.434 364.79L454.56 364.79L454.56 342.489C454.56 342.489 454.717 339.425 450.164 338.972L431.41 337.639Z" fill="#ffffff" fill-rule="nonzero" opacity="1" stroke="none" vectornator:layerName="path"/>
<path d="M383.928 403.758C383.928 403.758 380.698 402.878 380.125 405.813C380.125 405.813 378.953 407.864 382.762 408.753C382.762 408.753 388.622 410.05 388.759 412.555L388.759 430.429C388.759 430.429 390.075 436.587 397.116 437.3L452.659 437.156C452.659 437.156 455.886 437.3 456.021 431.752C456.021 431.752 455.59 427.328 451.486 427.202L411.032 427.202C411.032 427.202 407.23 427.494 407.511 423.378L407.376 406.846C407.376 406.846 406.931 404.493 403.412 404.205L383.928 403.758Z" fill="#ffffff" fill-rule="nonzero" opacity="1" stroke="none" vectornator:layerName="path"/>
<path d="M460.199 543.878L460.199 484.419C460.199 484.419 459.044 473.464 471.24 472.897L528.633 472.897C528.633 472.897 539.932 472.897 539.831 484.419C539.778 490.893 539.831 543.878 539.831 543.878L460.199 543.878Z" fill="#ffffff" fill-rule="nonzero" opacity="1" stroke="none" vectornator:layerName="path"/>
<path d="M897.175 370.369C897.175 370.369 844.206 443.796 708.516 496.492C708.516 496.492 642.946 526.942 539.228 535.578L500.595 535.296L500.343 535.299L500.092 535.296L461.459 535.578C357.739 526.942 292.171 496.492 292.171 496.492C156.48 443.796 103.512 370.369 103.512 370.369C97.1456 384.526 92.5377 403.271 92.5377 403.271C159.274 479.649 167.824 475.023 167.824 475.023C269.135 571.778 401.143 604.981 401.143 604.981C313.233 682.597 278.952 744.781 278.952 744.781C296.158 753.029 316.656 761.536 316.656 761.536C391.281 645.918 499.454 619.951 499.454 619.951C499.454 619.951 500.182 619.981 500.343 620.031C500.502 619.981 499.959 619.951 499.959 619.951C499.959 619.951 609.603 645.918 684.237 761.536C684.237 761.536 704.526 753.029 721.734 744.781C721.734 744.781 685.592 682.597 597.68 604.981C597.68 604.981 737.796 562.931 839.107 466.177C839.107 466.177 841.413 479.649 908.149 403.271C908.149 403.271 903.541 384.526 897.175 370.369" fill="#ffffff" fill-rule="nonzero" opacity="1" stroke="none" vectornator:layerName="path"/>
<path d="M879.007 410.601L887.974 411.64C889.576 411.786 894.407 412.166 902.481 412.784C905.253 412.995 907.048 413.119 907.872 413.152L909.895 418.251L908.254 418.904C903.273 417.903 897.523 416.974 890.989 416.121C884.463 415.267 880.291 414.792 878.474 414.683C877.246 414.633 876.213 414.691 875.376 414.85C874.762 414.942 873.832 415.237 872.565 415.741L866.422 418.183C863.334 419.404 861.116 420.362 859.757 421.058C858.406 421.747 857.623 422.247 857.412 422.557C857.195 422.87 857.099 423.276 857.135 423.772C857.161 424.27 857.61 425.696 858.494 428.053L855.241 429.344C853.865 425.303 852.536 421.665 851.26 418.449C850.024 415.329 848.66 412.192 847.189 409.055L850.438 407.764C851.471 410.079 852.128 411.414 852.409 411.775C852.69 412.132 852.989 412.336 853.294 412.398C853.592 412.449 854.363 412.276 855.613 411.87C858.423 410.901 860.8 410.032 862.757 409.261L869.662 406.514C870.225 406.291 871.215 405.432 872.645 403.934C876.02 400.27 879.28 396.515 882.443 392.658C885.008 389.487 886.958 386.717 888.317 384.34C889.206 382.766 889.698 381.695 889.773 381.123C889.814 380.797 889.52 379.837 888.889 378.253L891.648 377.157L895.882 383.262C896.621 384.291 897.422 385.326 898.274 386.373C897.954 387.992 897.593 389.227 897.192 390.08C896.78 390.932 895.891 392.222 894.525 393.951C892.515 396.549 890.091 399.287 887.269 402.16C882.808 406.802 880.05 409.617 879.007 410.601" fill="#213e87" fill-rule="nonzero" opacity="1" stroke="none" vectornator:layerName="path"/>
<path d="M167.145 378.744L170.052 381.849C170.4 385.141 170.385 387.943 170.009 390.234C169.631 392.527 168.719 395.203 167.28 398.261C165.232 402.583 162.636 406.023 159.488 408.584C156.973 410.596 154.236 412.007 151.27 412.838C148.305 413.665 145.365 413.978 142.449 413.772C138.022 413.525 133.637 412.368 129.283 410.309C121.829 406.791 116.783 401.715 114.142 395.089C111.497 388.467 112.072 381.149 115.858 373.131C117.159 370.383 118.563 368.023 120.069 366.048C121.572 364.072 123.61 361.921 126.169 359.593L126.706 359.636C127.659 360.473 128.924 361.38 130.5 362.348C133.004 363.9 135.357 365.253 137.56 366.404L136.429 368.798C133.826 367.604 131.726 366.688 130.131 366.056C127.833 366.645 125.881 367.604 124.262 368.927C122.643 370.254 121.202 372.249 119.942 374.911C117.67 379.723 117.612 384.396 119.77 388.933C121.928 393.474 126.158 397.232 132.46 400.21C136.278 402.016 139.832 403.109 143.13 403.485C146.428 403.871 149.385 403.699 152.007 402.969C154.626 402.239 156.752 401.258 158.378 400.013C160.561 398.344 162.402 395.929 163.898 392.757C164.871 390.694 165.532 388.607 165.867 386.5C166.209 384.396 166.243 381.937 165.962 379.137L167.145 378.744Z" fill="#213e87" fill-rule="nonzero" opacity="1" stroke="none" vectornator:layerName="path"/>
<path d="M263.85 709.167C263.85 709.167 297.712 731.404 295.209 759.584C295.209 759.584 268.276 743.006 263.85 709.167" fill="#213e87" fill-rule="nonzero" opacity="1" stroke="none" vectornator:layerName="path"/>
<path d="M295.231 727.442C295.231 727.442 331.257 746.321 331.71 774.621C331.71 774.621 303.156 760.662 295.231 727.442" fill="#213e87" fill-rule="nonzero" opacity="1" stroke="none" vectornator:layerName="path"/>
<path d="M330.551 743.177C330.551 743.177 368.207 758.807 371.394 786.936C371.394 786.936 341.637 775.596 330.551 743.177" fill="#213e87" fill-rule="nonzero" opacity="1" stroke="none" vectornator:layerName="path"/>
<path d="M736.085 710.392C736.085 710.392 702.228 732.633 704.727 760.807C704.727 760.807 731.681 744.23 736.085 710.392" fill="#213e87" fill-rule="nonzero" opacity="1" stroke="none" vectornator:layerName="path"/>
<path d="M704.703 728.685C704.703 728.685 668.703 747.549 668.222 775.83C668.222 775.83 696.765 761.886 704.703 728.685" fill="#213e87" fill-rule="nonzero" opacity="1" stroke="none" vectornator:layerName="path"/>
<path d="M669.387 744.402C669.387 744.402 631.718 760.027 628.559 788.186C628.559 788.186 658.32 776.821 669.387 744.402" fill="#213e87" fill-rule="nonzero" opacity="1" stroke="none" vectornator:layerName="path"/>
</g>
</g>
</svg>
