<svg width="145" height="40" viewBox="0 0 145 40" fill="none" xmlns="http://www.w3.org/2000/svg">
<path d="M16.2991 20.5051C15.7274 15.3013 21.1812 11.13 28.4808 11.1874C35.7805 11.2448 42.1665 15.505 42.7382 20.6986C43.309 25.9051 37.8597 30.07 30.5573 30.0135C23.2577 29.9617 16.8717 25.7014 16.2991 20.5051ZM44.0956 22.119C43.4359 15.6689 36.089 10.3874 27.6868 10.3161C19.2799 10.2485 13.0051 15.4208 13.6648 21.8681C14.3245 28.3154 21.6714 33.6006 30.0746 33.671C38.4787 33.7367 44.7581 28.5681 44.0956 22.119Z" fill="#FBB584"/>
<path d="M31.4093 33.7978C27.2712 38.1247 20.6257 38.4803 16.5701 34.5988C12.5153 30.7219 12.5839 24.0736 16.7267 19.7523C20.8666 15.4309 27.5121 15.0726 31.565 18.9504C35.6178 22.831 35.5502 29.4802 31.4093 33.7978ZM16.0743 19.6162C11.2626 24.6357 11.1857 32.3654 15.8983 36.8756C20.6109 41.3822 28.3349 40.9655 33.1439 35.9423C37.9575 30.92 38.0371 23.1912 33.3218 18.6828C28.6101 14.1763 20.887 14.592 16.0743 19.6162Z" fill="#F89B6C"/>
<path d="M16.5144 3.43977C25.1242 0.218436 33.6358 3.47866 35.5278 10.7232C37.4208 17.9733 31.9762 26.4622 23.3674 29.6845C14.7576 32.9105 6.24412 29.6484 4.35296 22.402C2.45903 15.1566 7.90734 6.66758 16.5144 3.43977ZM8.51888 6.2111C-0.41245 13.2769 -2.68443 23.5187 3.43935 29.0799C9.56592 34.6438 21.7718 33.4216 30.705 26.3576C39.6372 19.2936 41.9111 9.05465 35.7836 3.49162C29.6542 -2.07233 17.4502 -0.856575 8.51888 6.2111Z" fill="#F37321"/>
<path d="M64.551 12.4208V28.3118H62.0595V19.9311H52.6352V28.3118H50.1445V12.4208H52.6352V17.7515H62.0595V12.4208H64.551Z" fill="white"/>
<path d="M70.5285 28.3115C69.3666 28.3115 68.4456 27.9847 67.7682 27.3356C67.0761 26.6846 66.7305 25.8504 66.7305 24.8254V23.9735C66.7305 22.9374 67.0761 22.0929 67.7682 21.4457C68.4456 20.7799 69.3666 20.4494 70.5285 20.4494H77.0267V20.3883C77.0267 19.1151 76.3262 18.4781 74.9289 18.4781H67.7043V16.3623H74.8863C76.3808 16.3623 77.5242 16.7429 78.3118 17.5031C79.1142 18.2364 79.5155 19.2994 79.5155 20.6994V24.9068C79.5155 25.9865 79.1485 26.8365 78.4147 27.4606C77.7503 28.0263 76.8163 28.3115 75.6145 28.3115H70.5285ZM75.0734 22.5661H71.1299C69.8568 22.5661 69.2202 23.104 69.2202 24.1828V24.5781C69.2202 25.6411 69.8568 26.1754 71.1299 26.1754H75.0734C76.3734 26.1754 77.0248 25.642 77.0248 24.5781V24.1828C77.0267 23.104 76.3753 22.5661 75.0734 22.5661Z" fill="white"/>
<path d="M86.8028 16.3623H89.2536C90.8029 16.3623 92.0204 16.8114 92.9053 17.7105C93.792 18.6086 94.2359 19.8614 94.2359 21.4661V28.3124H91.7452V21.5892C91.7452 20.5957 91.5516 19.8698 91.1633 19.4105C90.6796 18.817 89.981 18.5197 89.0655 18.5197H86.9501C86.0634 18.5197 85.3722 18.817 84.8755 19.4105C84.5142 19.8688 84.3344 20.5948 84.3344 21.5892V28.3124H81.8438V21.4661C81.8438 19.8623 82.2867 18.6096 83.1725 17.7105C84.0574 16.8123 85.2656 16.3623 86.8028 16.3623Z" fill="white"/>
<path d="M105.715 26.7154C104.83 27.7802 103.729 28.3145 102.414 28.3145H100.88C99.4959 28.3145 98.3942 27.8784 97.5788 27.0071C96.8023 26.1913 96.4141 25.0367 96.4141 23.5431V16.3662H98.8843V23.5635C98.8843 24.4348 99.0724 25.0719 99.4449 25.4728C99.8739 25.9293 100.433 26.158 101.126 26.158H102.206C102.91 26.158 103.478 25.9293 103.907 25.4728C104.295 25.0719 104.488 24.4357 104.488 23.5635V16.3662H106.939V23.5635C106.939 24.4348 107.125 25.0719 107.499 25.4728C107.928 25.9293 108.487 26.158 109.179 26.158H110.259C110.965 26.158 111.531 25.9293 111.96 25.4728C112.349 25.0719 112.543 24.4357 112.543 23.5635V16.3662H115.012V23.5431C115.012 25.0367 114.611 26.1913 113.81 27.0071C112.992 27.8784 111.884 28.3145 110.489 28.3145H108.972C107.688 28.3126 106.602 27.7802 105.715 26.7154Z" fill="white"/>
<path d="M122.324 18.5198C121.437 18.5198 120.746 18.817 120.247 19.4105C119.888 19.8689 119.707 20.5948 119.707 21.5892V28.3125H117.217V12.3799H119.707V17.0892C120.427 16.604 121.251 16.3623 122.178 16.3623H124.627C126.178 16.3623 127.395 16.8114 128.28 17.7105C129.167 18.6087 129.611 19.8614 129.611 21.4661V28.3125H127.12V21.5892C127.12 20.5957 126.926 19.8698 126.539 19.4105C126.055 18.817 125.357 18.5198 124.44 18.5198H122.324Z" fill="white"/>
<path d="M135.461 28.3115C134.299 28.3115 133.378 27.9847 132.701 27.3356C132.008 26.6846 131.662 25.8504 131.662 24.8254V23.9735C131.662 22.9374 132.008 22.0929 132.701 21.4457C133.377 20.7799 134.3 20.4494 135.461 20.4494H141.959V20.3883C141.959 19.1151 141.261 18.4781 139.862 18.4781H132.638V16.3623H139.821C141.315 16.3623 142.459 16.7429 143.246 17.5031C144.047 18.2364 144.45 19.2994 144.45 20.6994V24.9068C144.45 25.9865 144.083 26.8365 143.349 27.4606C142.685 28.0263 141.751 28.3115 140.549 28.3115H135.461ZM140.008 22.5661H136.064C134.79 22.5661 134.155 23.104 134.155 24.1828V24.5781C134.155 25.6411 134.79 26.1754 136.064 26.1754H140.008C141.309 26.1754 141.958 25.642 141.958 24.5781V24.1828C141.959 23.104 141.309 22.5661 140.008 22.5661Z" fill="white"/>
</svg>
